<svg xmlns="http://www.w3.org/2000/svg" xmlns:xlink="http://www.w3.org/1999/xlink" viewBox="0 0 597.89 493.14"><defs><style>.cls-1,.cls-16,.cls-17,.cls-40,.cls-49,.cls-5,.cls-64,.cls-65,.cls-66,.cls-67,.cls-68,.cls-69,.cls-7{fill:none;}.cls-2{isolation:isolate;}.cls-3{fill:#724cf9;}.cls-4{opacity:0.7;}.cls-5,.cls-64,.cls-65,.cls-66,.cls-67,.cls-68,.cls-69{stroke:#fff;}.cls-10,.cls-11,.cls-12,.cls-13,.cls-14,.cls-16,.cls-17,.cls-18,.cls-20,.cls-21,.cls-22,.cls-40,.cls-44,.cls-45,.cls-46,.cls-47,.cls-48,.cls-49,.cls-5,.cls-50,.cls-51,.cls-57,.cls-58,.cls-59,.cls-64,.cls-65,.cls-66,.cls-67,.cls-68,.cls-69,.cls-7,.cls-71,.cls-73,.cls-8,.cls-9{stroke-linecap:round;stroke-linejoin:round;}.cls-10,.cls-11,.cls-12,.cls-13,.cls-14,.cls-16,.cls-17,.cls-18,.cls-20,.cls-21,.cls-22,.cls-40,.cls-44,.cls-45,.cls-46,.cls-47,.cls-5,.cls-50,.cls-51,.cls-57,.cls-58,.cls-59,.cls-71,.cls-73,.cls-8,.cls-9{stroke-width:1.54px;}.cls-6,.cls-66{opacity:0.3;}.cls-10,.cls-11,.cls-12,.cls-13,.cls-14,.cls-16,.cls-17,.cls-18,.cls-20,.cls-21,.cls-22,.cls-40,.cls-44,.cls-45,.cls-46,.cls-47,.cls-48,.cls-49,.cls-50,.cls-51,.cls-57,.cls-58,.cls-59,.cls-7,.cls-71,.cls-73,.cls-8,.cls-9{stroke:#490093;}.cls-7{stroke-width:2.57px;}.cls-15,.cls-8{fill:#983bff;}.cls-9{fill:#ff6bff;}.cls-10{fill:#ff97ff;}.cls-11{fill:#9297ff;}.cls-12{fill:#7c19dd;}.cls-13{fill:#9f97ff;}.cls-14,.cls-19,.cls-21,.cls-51,.cls-52{fill:#490093;}.cls-16{stroke-dasharray:0 2.56;}.cls-17{stroke-dasharray:0 2.62;}.cls-18{fill:#aad4ff;}.cls-19{opacity:0.18;}.cls-19,.cls-21,.cls-51,.cls-52{mix-blend-mode:darken;}.cls-20{fill:#bdffff;}.cls-21,.cls-52{opacity:0.25;}.cls-22{fill:#bd58ff;}.cls-23{clip-path:url(#clip-path);}.cls-24{fill:url(#Degradado_sin_nombre_9);}.cls-25{fill:url(#Degradado_sin_nombre_9-2);}.cls-26{fill:url(#Degradado_sin_nombre_9-3);}.cls-27{fill:url(#Degradado_sin_nombre_9-4);}.cls-28{fill:url(#Degradado_sin_nombre_9-5);}.cls-29{fill:url(#Degradado_sin_nombre_9-6);}.cls-30{fill:url(#Degradado_sin_nombre_9-7);}.cls-31{fill:url(#Degradado_sin_nombre_9-8);}.cls-32{fill:url(#Degradado_sin_nombre_17);}.cls-33{fill:url(#Degradado_sin_nombre_17-2);}.cls-34{fill:url(#Degradado_sin_nombre_17-3);}.cls-35{fill:url(#Degradado_sin_nombre_17-4);}.cls-36{fill:url(#Degradado_sin_nombre_17-5);}.cls-37{fill:url(#Degradado_sin_nombre_17-6);}.cls-38{fill:url(#Degradado_sin_nombre_17-7);}.cls-39{fill:url(#Degradado_sin_nombre_17-8);}.cls-41,.cls-58,.cls-61,.cls-62{fill:#9000c6;}.cls-42{fill:#ff56ff;}.cls-43,.cls-53,.cls-69,.cls-70,.cls-72{opacity:0.5;}.cls-43{fill:url(#Degradado_sin_nombre_37);}.cls-44{fill:#e0399a;}.cls-45{fill:#ff39a8;}.cls-46,.cls-48,.cls-53{fill:#fff;}.cls-47{fill:#ffc35b;}.cls-48,.cls-49{stroke-width:1.22px;}.cls-50{fill:#dfffff;}.cls-51{opacity:0.14;}.cls-54{fill:#e3e3e3;}.cls-55{fill:#1b0428;}.cls-56{fill:#7224ff;}.cls-57{fill:#7700b7;}.cls-59{fill:url(#Degradado_sin_nombre_34);}.cls-60{opacity:0.52;fill:url(#Degradado_sin_nombre_26);}.cls-61,.cls-63{opacity:0.33;}.cls-62{opacity:0.4;}.cls-63{fill:url(#Degradado_sin_nombre_42);}.cls-64,.cls-65,.cls-66,.cls-67,.cls-68,.cls-69{stroke-width:2.18px;}.cls-65{opacity:0.6;}.cls-67{opacity:0.1;}.cls-68{opacity:0.9;}.cls-70{fill:url(#Degradado_sin_nombre_37-2);}.cls-71{fill:#ffa45d;}.cls-72{fill:url(#Degradado_sin_nombre_33);}.cls-73{fill:#ffffb2;}</style><clipPath id="clip-path"><rect class="cls-1" x="101.31" y="289.5" width="60.54" height="103.55" transform="translate(-90.15 50.39) rotate(-16.23)"/></clipPath><linearGradient id="Degradado_sin_nombre_9" x1="-65.56" y1="1254.97" x2="-105.1" y2="1307.73" gradientTransform="translate(-184.27 -944.8) rotate(-16.23)" gradientUnits="userSpaceOnUse"><stop offset="0" stop-color="#dd7eff"/><stop offset="1" stop-color="#dd7eff" stop-opacity="0"/></linearGradient><linearGradient id="Degradado_sin_nombre_9-2" x1="-81.53" y1="1243.01" x2="-121.07" y2="1295.77" xlink:href="#Degradado_sin_nombre_9"/><linearGradient id="Degradado_sin_nombre_9-3" x1="-58.41" y1="1260.34" x2="-97.94" y2="1313.1" xlink:href="#Degradado_sin_nombre_9"/><linearGradient id="Degradado_sin_nombre_9-4" x1="-48.24" y1="1267.95" x2="-87.78" y2="1320.71" xlink:href="#Degradado_sin_nombre_9"/><linearGradient id="Degradado_sin_nombre_9-5" x1="-43.53" y1="1271.49" x2="-83.06" y2="1324.25" xlink:href="#Degradado_sin_nombre_9"/><linearGradient id="Degradado_sin_nombre_9-6" x1="-87.45" y1="1238.57" x2="-126.99" y2="1291.33" xlink:href="#Degradado_sin_nombre_9"/><linearGradient id="Degradado_sin_nombre_9-7" x1="-66.34" y1="1254.39" x2="-105.88" y2="1307.15" xlink:href="#Degradado_sin_nombre_9"/><linearGradient id="Degradado_sin_nombre_9-8" x1="-70.96" y1="1250.93" x2="-110.5" y2="1303.69" xlink:href="#Degradado_sin_nombre_9"/><linearGradient id="Degradado_sin_nombre_17" x1="-6096.55" y1="2070.78" x2="-6032.24" y2="2014.82" gradientTransform="translate(-5874.56 -1724.6) rotate(-142.1)" gradientUnits="userSpaceOnUse"><stop offset="0" stop-color="#a0b1ff"/><stop offset="0.09" stop-color="#a0b1ff" stop-opacity="0.95"/><stop offset="0.25" stop-color="#a0b1ff" stop-opacity="0.82"/><stop offset="0.47" stop-color="#a1b1ff" stop-opacity="0.61"/><stop offset="0.73" stop-color="#a1b0ff" stop-opacity="0.33"/><stop offset="1" stop-color="#a2b0ff" stop-opacity="0"/></linearGradient><linearGradient id="Degradado_sin_nombre_17-2" x1="-6112.17" y1="2052.82" x2="-6047.87" y2="1996.86" xlink:href="#Degradado_sin_nombre_17"/><linearGradient id="Degradado_sin_nombre_17-3" x1="-6089.59" y1="2078.78" x2="-6025.28" y2="2022.81" xlink:href="#Degradado_sin_nombre_17"/><linearGradient id="Degradado_sin_nombre_17-4" x1="-6087.71" y1="2080.94" x2="-6023.4" y2="2024.97" xlink:href="#Degradado_sin_nombre_17"/><linearGradient id="Degradado_sin_nombre_17-5" x1="-6082.45" y1="2086.98" x2="-6018.14" y2="2031.02" xlink:href="#Degradado_sin_nombre_17"/><linearGradient id="Degradado_sin_nombre_17-6" x1="-6117.28" y1="2046.96" x2="-6052.97" y2="1990.99" xlink:href="#Degradado_sin_nombre_17"/><linearGradient id="Degradado_sin_nombre_17-7" x1="-6096.02" y1="2071.38" x2="-6031.71" y2="2015.42" xlink:href="#Degradado_sin_nombre_17"/><linearGradient id="Degradado_sin_nombre_17-8" x1="-6100.34" y1="2066.42" x2="-6036.04" y2="2010.45" xlink:href="#Degradado_sin_nombre_17"/><linearGradient id="Degradado_sin_nombre_37" x1="-9.51" y1="1300.94" x2="-70.87" y2="1377.71" gradientTransform="translate(-184.27 -944.8) rotate(-16.23)" gradientUnits="userSpaceOnUse"><stop offset="0" stop-color="#fff"/><stop offset="0.42" stop-color="#fff" stop-opacity="0.59"/><stop offset="1" stop-color="#fff" stop-opacity="0"/></linearGradient><linearGradient id="Degradado_sin_nombre_34" x1="244.7" y1="253.09" x2="472.68" y2="205.21" gradientTransform="translate(-28.2 49.98) rotate(-7.84)" gradientUnits="userSpaceOnUse"><stop offset="0" stop-color="#ff58ff"/><stop offset="1" stop-color="#b946ff"/></linearGradient><linearGradient id="Degradado_sin_nombre_26" x1="404.06" y1="364.91" x2="319.51" y2="152.26" gradientUnits="userSpaceOnUse"><stop offset="0" stop-color="#ff58ff"/><stop offset="1" stop-color="#fff"/></linearGradient><linearGradient id="Degradado_sin_nombre_42" x1="326.67" y1="213.11" x2="421.45" y2="267.19" gradientTransform="translate(-26.52 55.86) rotate(-7.12)" gradientUnits="userSpaceOnUse"><stop offset="0" stop-color="#c400c6"/><stop offset="1" stop-color="#ffd0ff"/></linearGradient><linearGradient id="Degradado_sin_nombre_37-2" x1="448.29" y1="-277.74" x2="346.03" y2="-149.81" gradientTransform="translate(-2.47 423.16) rotate(7.99)" xlink:href="#Degradado_sin_nombre_37"/><linearGradient id="Degradado_sin_nombre_33" x1="271" y1="372.56" x2="459.65" y2="292.66" gradientTransform="matrix(1, -0.05, 0.05, 1, -8.32, -162.31)" gradientUnits="userSpaceOnUse"><stop offset="0" stop-color="#fff" stop-opacity="0"/><stop offset="1" stop-color="#fff"/></linearGradient></defs><g class="cls-2"><g id="Layer_2" data-name="Layer 2"><g id="OBJECTS"><polygon class="cls-3" points="560.44 388.11 569.36 384.42 572.17 376.38 574.99 384.83 583.9 388.11 575.81 391.28 572.17 399.84 569.36 391.97 560.44 388.11"/><path class="cls-3" d="M567.05,355.63a33,33,0,0,1-6.91,1.55,56.47,56.47,0,0,1-13.83,0,33.21,33.21,0,0,1-6.91-1.56,33.18,33.18,0,0,1,6.91-1.55,56.47,56.47,0,0,1,13.83,0A33.65,33.65,0,0,1,567.05,355.63Z"/><path class="cls-3" d="M553.23,341.81a33.65,33.65,0,0,1,1.54,6.91,56.47,56.47,0,0,1,0,13.83,33.83,33.83,0,0,1-1.55,6.91,33.21,33.21,0,0,1-1.56-6.91,56.47,56.47,0,0,1,0-13.83A33,33,0,0,1,553.23,341.81Z"/><path class="cls-3" d="M563,365.41a33.36,33.36,0,0,1-6-3.79,56.73,56.73,0,0,1-5.19-4.59,55.43,55.43,0,0,1-4.59-5.19,33.36,33.36,0,0,1-3.79-6,33.24,33.24,0,0,1,6,3.79,53.92,53.92,0,0,1,5.18,4.59,55.43,55.43,0,0,1,4.59,5.19A33.36,33.36,0,0,1,563,365.41Z"/><path class="cls-3" d="M563,345.86a33.36,33.36,0,0,1-3.79,6,56.73,56.73,0,0,1-4.59,5.19,55.31,55.31,0,0,1-5.18,4.59,33.81,33.81,0,0,1-6,3.79,33.81,33.81,0,0,1,3.79-6,55.31,55.31,0,0,1,4.59-5.18,56.73,56.73,0,0,1,5.19-4.59A33.36,33.36,0,0,1,563,345.86Z"/><path class="cls-3" d="M584.17,331.44a14.48,14.48,0,0,1-3.11.69,27.06,27.06,0,0,1-3.11.2,24.8,24.8,0,0,1-3.1-.19,15,15,0,0,1-3.11-.7,15,15,0,0,1,3.11-.7,25.47,25.47,0,0,1,6.21,0A15.14,15.14,0,0,1,584.17,331.44Z"/><path class="cls-3" d="M578,325.22a15.28,15.28,0,0,1,.7,3.11,25.55,25.55,0,0,1,0,6.22,15,15,0,0,1-.7,3.1,14.39,14.39,0,0,1-.69-3.1,23.28,23.28,0,0,1-.19-3.11,25,25,0,0,1,.19-3.11A16,16,0,0,1,578,325.22Z"/><path class="cls-3" d="M582.35,335.83a15.33,15.33,0,0,1-2.69-1.7,25.45,25.45,0,0,1-4.4-4.4,14.63,14.63,0,0,1-1.7-2.69,14.81,14.81,0,0,1,2.69,1.71,25.33,25.33,0,0,1,4.39,4.39A14.81,14.81,0,0,1,582.35,335.83Z"/><path class="cls-3" d="M582.35,327a14.47,14.47,0,0,1-1.71,2.69,24.93,24.93,0,0,1-4.39,4.4,15.33,15.33,0,0,1-2.69,1.7,15.33,15.33,0,0,1,1.7-2.69,25.86,25.86,0,0,1,4.4-4.39A15.37,15.37,0,0,1,582.35,327Z"/><polygon class="cls-3" points="23.73 263.64 14.81 259.95 12 251.92 9.18 260.37 0.27 263.64 8.36 266.82 12 275.37 14.81 267.5 23.73 263.64"/><path class="cls-3" d="M17.12,231.17A33.68,33.68,0,0,0,24,232.72a55.24,55.24,0,0,0,6.91.42,53.3,53.3,0,0,0,6.91-.42,33.13,33.13,0,0,0,6.92-1.55,33.13,33.13,0,0,0-6.92-1.55,53.3,53.3,0,0,0-6.91-.42,55.24,55.24,0,0,0-6.91.42A33.68,33.68,0,0,0,17.12,231.17Z"/><path class="cls-3" d="M30.94,217.35a33.54,33.54,0,0,0-1.55,6.91,55.24,55.24,0,0,0-.42,6.91,53.4,53.4,0,0,0,.42,6.91A32.9,32.9,0,0,0,30.94,245a32.9,32.9,0,0,0,1.55-6.91,55.26,55.26,0,0,0,.43-6.91,57.23,57.23,0,0,0-.43-6.91A33.54,33.54,0,0,0,30.94,217.35Z"/><path class="cls-3" d="M21.17,241a34.13,34.13,0,0,0,6-3.8,56.63,56.63,0,0,0,5.19-4.58,56.73,56.73,0,0,0,4.59-5.19,33.1,33.1,0,0,0,3.79-6,33.81,33.81,0,0,0-6,3.79A57,57,0,0,0,25,235,33.81,33.81,0,0,0,21.17,241Z"/><path class="cls-3" d="M21.17,221.39a33.81,33.81,0,0,0,3.79,6,57,57,0,0,0,9.77,9.78,33.81,33.81,0,0,0,6,3.79,33.1,33.1,0,0,0-3.79-6,56.73,56.73,0,0,0-4.59-5.19,56.63,56.63,0,0,0-5.19-4.58A34.13,34.13,0,0,0,21.17,221.39Z"/><path class="cls-3" d="M0,207a15.14,15.14,0,0,0,3.11.7,24.8,24.8,0,0,0,3.1.19,24.85,24.85,0,0,0,3.11-.19,14.51,14.51,0,0,0,3.11-.7,14.48,14.48,0,0,0-3.11-.69,24.85,24.85,0,0,0-3.11-.19,24.8,24.8,0,0,0-3.1.19A15.79,15.79,0,0,0,0,207Z"/><path class="cls-3" d="M6.21,200.76a15.79,15.79,0,0,0-.69,3.11,25.47,25.47,0,0,0,0,6.21,14.48,14.48,0,0,0,.69,3.11,14.51,14.51,0,0,0,.7-3.11A24.85,24.85,0,0,0,7.1,207a24.8,24.8,0,0,0-.19-3.1A15.14,15.14,0,0,0,6.21,200.76Z"/><path class="cls-3" d="M1.82,211.37a14.81,14.81,0,0,0,2.69-1.71,25.4,25.4,0,0,0,2.33-2.06,22.87,22.87,0,0,0,2.06-2.33,14.81,14.81,0,0,0,1.71-2.69,15,15,0,0,0-2.69,1.7,23,23,0,0,0-2.33,2.07,25.4,25.4,0,0,0-2.06,2.33A14.81,14.81,0,0,0,1.82,211.37Z"/><path class="cls-3" d="M1.82,202.58a14.81,14.81,0,0,0,1.71,2.69,25.4,25.4,0,0,0,2.06,2.33,24.24,24.24,0,0,0,2.33,2.07,15,15,0,0,0,2.69,1.7,14.47,14.47,0,0,0-1.71-2.69,22.87,22.87,0,0,0-2.06-2.33,25.4,25.4,0,0,0-2.33-2.06A14.81,14.81,0,0,0,1.82,202.58Z"/><g class="cls-4"><path class="cls-5" d="M315.18,49A7.23,7.23,0,1,1,308,41.79,7.23,7.23,0,0,1,315.18,49Z"/><path class="cls-5" d="M297,70.78a4.18,4.18,0,1,1-3.06-5.06A4.18,4.18,0,0,1,297,70.78Z"/><path class="cls-5" d="M333.63,63.8a4.18,4.18,0,1,1-3.06-5.06A4.18,4.18,0,0,1,333.63,63.8Z"/><line class="cls-5" x1="302.71" y1="53.98" x2="295.06" y2="65.91"/><line class="cls-5" x1="326.1" y1="60.28" x2="314.66" y2="51.92"/></g><g class="cls-4"><path class="cls-5" d="M523.69,204.15a7.23,7.23,0,1,1-9.91,2.51A7.23,7.23,0,0,1,523.69,204.15Z"/><path class="cls-5" d="M533.09,230.91a4.18,4.18,0,1,1-5.91,0A4.18,4.18,0,0,1,533.09,230.91Z"/><path class="cls-5" d="M545.83,195.86a4.18,4.18,0,1,1-5.91,0A4.17,4.17,0,0,1,545.83,195.86Z"/><line class="cls-5" x1="521.57" y1="217.41" x2="527.91" y2="230.09"/><line class="cls-5" x1="538.96" y1="200.53" x2="525.92" y2="206.09"/></g><g class="cls-4"><path class="cls-5" d="M192.41,200.68a7.22,7.22,0,1,1-5,8.93A7.21,7.21,0,0,1,192.41,200.68Z"/><path class="cls-5" d="M218.34,212.18a4.18,4.18,0,1,1-4,4.33A4.18,4.18,0,0,1,218.34,212.18Z"/><path class="cls-5" d="M201.56,178.87a4.18,4.18,0,1,1-4,4.33A4.18,4.18,0,0,1,201.56,178.87Z"/><line class="cls-5" x1="200.61" y1="211.3" x2="214.19" y2="215.38"/><line class="cls-5" x1="200.24" y1="187.07" x2="195.35" y2="200.38"/></g><g class="cls-6"><path class="cls-5" d="M390.31,465.94a5.4,5.4,0,1,1-5.12-5.68A5.4,5.4,0,0,1,390.31,465.94Z"/><path class="cls-5" d="M375.9,481.5a3.12,3.12,0,1,1-2.09-3.9A3.12,3.12,0,0,1,375.9,481.5Z"/><path class="cls-5" d="M403.53,477.68a3.12,3.12,0,1,1-2.09-3.89A3.11,3.11,0,0,1,403.53,477.68Z"/><line class="cls-5" x1="380.81" y1="469.16" x2="374.64" y2="477.79"/><line class="cls-5" x1="398.05" y1="474.77" x2="389.81" y2="468.09"/></g><g class="cls-6"><path class="cls-5" d="M344.84,463.34a9.37,9.37,0,1,1,5.69-12A9.38,9.38,0,0,1,344.84,463.34Z"/><path class="cls-5" d="M310.32,450.6a5.43,5.43,0,1,1,4.85-6A5.44,5.44,0,0,1,310.32,450.6Z"/><path class="cls-5" d="M334.81,492.34a5.42,5.42,0,1,1,4.85-5.94A5.43,5.43,0,0,1,334.81,492.34Z"/><line class="cls-5" x1="333.35" y1="450.26" x2="315.42" y2="446.1"/><line class="cls-5" x1="335.83" y1="481.61" x2="341.06" y2="463.97"/></g><g class="cls-6"><path class="cls-5" d="M254.26,53.27a5.4,5.4,0,1,1,6.57,3.91A5.41,5.41,0,0,1,254.26,53.27Z"/><path class="cls-5" d="M263.43,34.14a3.13,3.13,0,1,1,3.15,3.11A3.13,3.13,0,0,1,263.43,34.14Z"/><path class="cls-5" d="M238.16,46a3.13,3.13,0,1,1,3.15,3.1A3.13,3.13,0,0,1,238.16,46Z"/><line class="cls-5" x1="262.39" y1="47.38" x2="265.73" y2="37.32"/><line class="cls-5" x1="244.26" y1="47.12" x2="254.1" y2="51.07"/></g><g class="cls-6"><path class="cls-5" d="M199.65,453.74a7.23,7.23,0,1,1-.41-10.21A7.22,7.22,0,0,1,199.65,453.74Z"/><path class="cls-5" d="M171.53,457.41a4.18,4.18,0,1,1,1.18-5.79A4.2,4.2,0,0,1,171.53,457.41Z"/><path class="cls-5" d="M203.19,477.12a4.18,4.18,0,1,1,1.18-5.79A4.17,4.17,0,0,1,203.19,477.12Z"/><line class="cls-5" x1="187.12" y1="448.93" x2="173.4" y2="452.51"/><line class="cls-5" x1="200.04" y1="469.43" x2="197.3" y2="455.52"/><path class="cls-5" d="M218,465.25a2.8,2.8,0,1,1-4,.19A2.8,2.8,0,0,1,218,465.25Z"/><line class="cls-5" x1="213.55" y1="468.57" x2="204.97" y2="472.65"/></g><g class="cls-6"><path class="cls-5" d="M141.09,221.22a6.64,6.64,0,1,1-7-6.32A6.65,6.65,0,0,1,141.09,221.22Z"/><path class="cls-5" d="M125.34,242a3.84,3.84,0,1,1-3-4.51A3.84,3.84,0,0,1,125.34,242Z"/><path class="cls-5" d="M158.67,234a3.84,3.84,0,1,1-3-4.52A3.84,3.84,0,0,1,158.67,234Z"/><line class="cls-5" x1="129.85" y1="226.32" x2="123.35" y2="237.61"/><line class="cls-5" x1="151.61" y1="231.09" x2="140.74" y2="223.91"/><path class="cls-5" d="M160.48,216.62a2.58,2.58,0,1,1-2.43,2.72A2.58,2.58,0,0,1,160.48,216.62Z"/><line class="cls-5" x1="159.76" y1="221.69" x2="156.9" y2="229.95"/></g><g class="cls-4"><path class="cls-5" d="M456.91,38.22a7.22,7.22,0,1,1-9.07-4.69A7.23,7.23,0,0,1,456.91,38.22Z"/><path class="cls-5" d="M431.35,55a4.18,4.18,0,1,1-4.45-3.89A4.17,4.17,0,0,1,431.35,55Z"/><path class="cls-5" d="M457,4.1a3.57,3.57,0,1,1-3.8-3.32A3.57,3.57,0,0,1,457,4.1Z"/><path class="cls-5" d="M479.37,42.17a3.57,3.57,0,1,1-3.79-3.32A3.56,3.56,0,0,1,479.37,42.17Z"/><path class="cls-5" d="M493.06,57.67a3,3,0,1,1-3.24-2.83A3.06,3.06,0,0,1,493.06,57.67Z"/><line class="cls-5" x1="487.84" y1="55.41" x2="478.21" y2="45.01"/><line class="cls-5" x1="451.14" y1="33.28" x2="453.62" y2="8.07"/><line class="cls-5" x1="457.2" y1="42.32" x2="471.75" y2="42.36"/><line class="cls-5" x1="444.04" y1="45.41" x2="430.6" y2="52.21"/></g><g class="cls-4"><path class="cls-5" d="M440.3,360.7a11.6,11.6,0,1,1-15.87,4.17A11.6,11.6,0,0,1,440.3,360.7Z"/><path class="cls-5" d="M427.88,408.18a6.71,6.71,0,1,1-9.49.15A6.7,6.7,0,0,1,427.88,408.18Z"/><path class="cls-5" d="M403.69,319.93a5.73,5.73,0,1,1-8.1.13A5.73,5.73,0,0,1,403.69,319.93Z"/><path class="cls-5" d="M471.31,341.23a5.73,5.73,0,1,1-8.1.12A5.73,5.73,0,0,1,471.31,341.23Z"/><path class="cls-5" d="M504.3,345a4.89,4.89,0,1,1-6.92.1A4.88,4.88,0,0,1,504.3,345Z"/><line class="cls-5" x1="495.65" y1="347.89" x2="472.98" y2="345.87"/><line class="cls-5" x1="428.11" y1="361.02" x2="403.92" y2="328.31"/><line class="cls-5" x1="445.04" y1="365.27" x2="462.43" y2="349.66"/><line class="cls-5" x1="432.69" y1="383.11" x2="423.99" y2="405.69"/></g><g class="cls-4"><path class="cls-5" d="M94.82,399.75a8.55,8.55,0,1,1-6-10.5A8.55,8.55,0,0,1,94.82,399.75Z"/><path class="cls-5" d="M58.61,400a4.95,4.95,0,1,1-1.92-6.73A4.95,4.95,0,0,1,58.61,400Z"/><path class="cls-5" d="M116.85,365.87a4.23,4.23,0,1,1-1.64-5.75A4.23,4.23,0,0,1,116.85,365.87Z"/><path class="cls-5" d="M114.63,418.12a4.23,4.23,0,1,1-1.64-5.75A4.23,4.23,0,0,1,114.63,418.12Z"/><path class="cls-5" d="M118.27,442.34a3.61,3.61,0,1,1-1.4-4.91A3.6,3.6,0,0,1,118.27,442.34Z"/><line class="cls-5" x1="114.54" y1="436.74" x2="111.64" y2="420.2"/><line class="cls-5" x1="92.26" y1="391.13" x2="110.93" y2="367.63"/><line class="cls-5" x1="92.47" y1="404.01" x2="106.92" y2="413.41"/><line class="cls-5" x1="77.39" y1="398.62" x2="59.65" y2="396.75"/></g><g class="cls-6"><path class="cls-5" d="M512.19,461.69a7.23,7.23,0,1,1-9.61-3.47A7.21,7.21,0,0,1,512.19,461.69Z"/><path class="cls-5" d="M489,481.66a4.18,4.18,0,1,1-4.92-3.28A4.19,4.19,0,0,1,489,481.66Z"/><path class="cls-5" d="M535,462.67a3.57,3.57,0,1,1-4.2-2.8A3.57,3.57,0,0,1,535,462.67Z"/><path class="cls-5" d="M550.58,476.25a3,3,0,1,1-3.59-2.39A3,3,0,0,1,550.58,476.25Z"/><line class="cls-5" x1="545.11" y1="474.69" x2="534.2" y2="465.64"/><path class="cls-5" d="M536,442.5a2.66,2.66,0,1,1-.76,3.68A2.66,2.66,0,0,1,536,442.5Z"/><line class="cls-5" x1="536.51" y1="447.43" x2="532.73" y2="459.22"/><line class="cls-5" x1="513.01" y1="465.71" x2="527.44" y2="463.86"/><line class="cls-5" x1="500.36" y1="470.5" x2="487.92" y2="479"/></g><path class="cls-7" d="M103.7,204.68S120.19,243.63,81,248c-32.21,3.59-56.94,32.13-41.72,55.91,20.59,32.16,76.24,13.84,101.34-29.36,43.53-75,133.84-65.26,163.28-36.93,44.16,42.51,62.86,159.78-43.13,189.57-65.62,18.44-101-8.76-112.15-27.31"/><path class="cls-8" d="M111.56,174.44c4,9.23,2.53,18.81-3.38,21.4s-14-2.8-18-12-2.53-18.82,3.38-21.4S107.52,165.2,111.56,174.44Z"/><path class="cls-9" d="M108.26,175.88C102.82,163.46,92,156.22,84,159.7l-8.64,3.78,4.9,11.21a36.86,36.86,0,0,0,9.88,22.56l4.83,11,6.92-3a11.15,11.15,0,0,0,1.8-.59,10,10,0,0,0,1.66-.93l.21-.09v0C111.94,199,113.24,187.27,108.26,175.88Z"/><path class="cls-10" d="M100.24,179.39c5.44,12.42,3.4,25.31-4.55,28.79S76.89,204.42,71.45,192s-3.4-25.31,4.55-28.79S94.81,167,100.24,179.39Z"/><path class="cls-11" d="M91.59,94v0l-.49.23-.49.2h0v0a51.77,51.77,0,0,0-25.7,67.75l9.37,21.42,13.25-7.31L74.47,146.43a36.19,36.19,0,1,1,66.29-29l13.06,29.83,14.36-4.77-9.38-21.42A51.77,51.77,0,0,0,91.59,94Z"/><path class="cls-12" d="M110.82,90.06l-2,.89,2,4.68a36.67,36.67,0,0,1,29.92,21.78l13.06,29.83,14.36-4.77-9.38-21.42A51.75,51.75,0,0,0,110.82,90.06Z"/><path class="cls-9" d="M74.1,125.51h0A11.73,11.73,0,0,0,79.94,120c2.38-4.82,7.79-13.23,18-17.71,10.5-4.6,21.29-3,26.75-1.62a11.77,11.77,0,0,0,7.63-.65l1.53-.67s-13.75-10.93-37.42-.57S74.1,125.51,74.1,125.51Z"/><path class="cls-8" d="M95.49,94.89h0a43.8,43.8,0,0,0-22.56,57.69l9.83,22.47a7.61,7.61,0,0,0-3.19.63c-5.91,2.58-10,6.16-6,15.39s12.11,14.62,18,12S99,190.94,95,181.7c-2.37-5.42-6.14-9.5-10-11.43l-8.62-19.7A39.16,39.16,0,0,1,96.46,99h0a45.11,45.11,0,0,1,59.41,23.23L166,145.39l3.46-1.51-10.59-24.21A48.12,48.12,0,0,0,95.49,94.89Z"/><path class="cls-13" d="M91.73,183.12c4,9.23,2.52,18.81-3.39,21.4s-14-2.8-18-12-2.52-18.81,3.39-21.4S87.68,173.89,91.73,183.12Z"/><path class="cls-11" d="M86.38,185.46c3.4,7.77,2.12,15.83-2.85,18s-11.76-2.36-15.16-10.12-2.12-15.83,2.85-18S83,177.7,86.38,185.46Z"/><polygon class="cls-14" points="76.38 202.61 77.81 191.8 71.83 194.82 77.75 176.47 76.16 189.37 83 186.03 76.38 202.61"/><path class="cls-13" d="M175.38,146.5c4,9.23,2.53,18.81-3.38,21.4s-14-2.8-18-12-2.53-18.82,3.38-21.4S171.34,137.26,175.38,146.5Z"/><path class="cls-10" d="M172,148c-5.43-12.42-16.29-19.67-24.24-16.18l-8.65,3.78L144,146.78a36.86,36.86,0,0,0,9.88,22.56l4.83,11,6.92-3a9.72,9.72,0,0,0,1.8-.59,9.91,9.91,0,0,0,1.66-.92l.21-.09v-.05C175.7,171.13,177,159.36,172,148Z"/><ellipse class="cls-9" cx="149.6" cy="157.78" rx="15.72" ry="24.55" transform="matrix(0.92, -0.4, 0.4, 0.92, -50.72, 73.24)"/><path class="cls-8" d="M157.84,154.18c4.42,10.11,2.76,20.61-3.71,23.44s-15.31-3.07-19.74-13.18-2.77-20.61,3.71-23.44S153.41,144.07,157.84,154.18Z"/><path class="cls-15" d="M155.36,155.26c3.64,8.3,2.44,16.85-2.66,19.08s-12.2-2.68-15.83-11-2.45-16.85,2.66-19.08S151.73,147,155.36,155.26Z"/><path class="cls-16" d="M155.36,155.26c3.64,8.3,2.44,16.85-2.66,19.08s-12.2-2.68-15.83-11-2.44-16.85,2.66-19.08S151.73,147,155.36,155.26Z"/><path class="cls-15" d="M152.87,156.35c2.86,6.53,2.06,13.19-1.78,14.87S141.81,169,139,162.44s-2-13.18,1.79-14.86S150,149.82,152.87,156.35Z"/><path class="cls-17" d="M152.87,156.35c2.86,6.53,2.06,13.19-1.78,14.87S141.81,169,139,162.44s-2-13.18,1.79-14.86S150,149.82,152.87,156.35Z"/><path class="cls-8" d="M150.34,157.46c2.15,4.91,1.66,9.87-1.09,11.07s-6.73-1.79-8.88-6.7-1.66-9.87,1.09-11.08S148.19,152.55,150.34,157.46Z"/><path class="cls-14" d="M143.42,160.49c-1.73-4-1.74-8-.24-10a3.43,3.43,0,0,0-1.72.24c-2.75,1.21-3.24,6.16-1.09,11.08s6.12,7.91,8.88,6.7a3.33,3.33,0,0,0,1.33-1.09C148.08,167.16,145.16,164.45,143.42,160.49Z"/><rect class="cls-18" x="105.62" y="278.37" width="60.54" height="125.66" rx="2.66" transform="translate(-89.96 51.59) rotate(-16.23)"/><rect class="cls-19" x="103.49" y="278.99" width="60.54" height="125.66" rx="2.66" transform="translate(-90.22 51.02) rotate(-16.23)"/><rect class="cls-20" x="101.63" y="279.53" width="60.54" height="125.66" rx="2.66" transform="translate(-90.45 50.52) rotate(-16.23)"/><rect class="cls-21" x="86.47" y="287.22" width="60.54" height="6.15" transform="translate(-76.49 44.21) rotate(-16.23)"/><path class="cls-21" d="M173.49,390.28l-51,14.83a3.74,3.74,0,0,1-4.63-2.53l1.46,5a3.74,3.74,0,0,0,4.62,2.54l51-14.84a3.74,3.74,0,0,0,2.54-4.62l-1.45-5A3.75,3.75,0,0,1,173.49,390.28Z"/><path class="cls-20" d="M150.74,396.06a3.08,3.08,0,1,1-3.82-2.1A3.09,3.09,0,0,1,150.74,396.06Z"/><path class="cls-21" d="M147.83,397.07a3.06,3.06,0,0,1-3.05-.8,3.08,3.08,0,1,0,5.18-1.51A3,3,0,0,1,147.83,397.07Z"/><rect class="cls-22" x="101.31" y="289.5" width="60.54" height="103.55" transform="translate(-90.15 50.39) rotate(-16.23)"/><g class="cls-23"><path class="cls-24" d="M112.13,337.19a8.22,8.22,0,0,0-2.42-2.52l0-.07a6.54,6.54,0,0,1-2.62-2.37,6.67,6.67,0,0,1,.88-8.14,18.35,18.35,0,0,0,2.45-21.26,10,10,0,0,1,2.42-12.19c0-.05-.06-.06-.06-.11a9.9,9.9,0,1,0-15.26-8.25,9.9,9.9,0,0,1-4.43,10.52,10.26,10.26,0,0,1-2.39,1.09,17.92,17.92,0,0,0-5.83,2.35,18.21,18.21,0,0,0-4.9,4.49l-.14-.09a6.35,6.35,0,0,1-2,2,6.58,6.58,0,0,1-7.68-.51,6.58,6.58,0,0,0-10.12,8.25A6.7,6.7,0,0,0,68.31,313a6.72,6.72,0,0,1,8,2.76,6.84,6.84,0,0,1,1.08,2.51h0a18.85,18.85,0,0,0,1.69,3.11,18.12,18.12,0,0,0,12.18,8.26,6.61,6.61,0,0,1,5.53,9.82,8.47,8.47,0,1,0,15.37-2.24Z"/><path class="cls-25" d="M71.6,300.43a3.62,3.62,0,1,0,1.16-5A3.6,3.6,0,0,0,71.6,300.43Z"/><path class="cls-26" d="M95.59,333.51A4.93,4.93,0,1,0,94,340.3,4.94,4.94,0,0,0,95.59,333.51Z"/><path class="cls-27" d="M112.73,302.1a7.74,7.74,0,1,0,2.49-10.66A7.74,7.74,0,0,0,112.73,302.1Z"/><path class="cls-28" d="M119.55,307.71a2.83,2.83,0,1,0,3.9.91A2.84,2.84,0,0,0,119.55,307.71Z"/><path class="cls-29" d="M69.57,295a1.75,1.75,0,1,0-2.4-.57A1.75,1.75,0,0,0,69.57,295Z"/><path class="cls-30" d="M84.5,330.78a2.59,2.59,0,1,0-.83,3.56A2.58,2.58,0,0,0,84.5,330.78Z"/><path class="cls-31" d="M79.65,325.22a1.4,1.4,0,1,0-.45,1.92A1.4,1.4,0,0,0,79.65,325.22Z"/><path class="cls-32" d="M163.16,360.27a8.48,8.48,0,0,0-.63,3.44h-.08a6.5,6.5,0,0,1-.39,3.52,6.67,6.67,0,0,1-7.1,4.06,18.35,18.35,0,0,0-18.67,10.46,10,10,0,0,1-11.3,5.18s0,.09,0,.12a9.89,9.89,0,1,0,2.26,17.19,9.88,9.88,0,0,1,11.11-2.56A10,10,0,0,1,140.6,403a18.06,18.06,0,0,0,5.32,3.35,18.26,18.26,0,0,0,6.51,1.34v.16a6.56,6.56,0,0,1,6.86,7,6.58,6.58,0,0,0,12.61,3.37,6.7,6.7,0,0,0-2.69-8.22,7.08,7.08,0,0,1-1-10.42h0a19.13,19.13,0,0,0,1.53-3.19,18.14,18.14,0,0,0-.44-14.72A6.6,6.6,0,0,1,174,371.42a8.61,8.61,0,0,0,4.82-4.75,8.45,8.45,0,0,0-15.64-6.4Z"/><path class="cls-33" d="M157.11,414.65a3.61,3.61,0,1,0-4.71,2A3.6,3.6,0,0,0,157.11,414.65Z"/><path class="cls-34" d="M169.87,375.83a4.93,4.93,0,1,0,6.43-2.7A4.93,4.93,0,0,0,169.87,375.83Z"/><path class="cls-35" d="M134.37,380.34a7.74,7.74,0,1,0-10.09,4.23A7.74,7.74,0,0,0,134.37,380.34Z"/><path class="cls-36" d="M134.92,371.52a2.83,2.83,0,1,0-1.55-3.69A2.83,2.83,0,0,0,134.92,371.52Z"/><path class="cls-37" d="M153.88,419.49a1.74,1.74,0,1,0,1,2.27A1.75,1.75,0,0,0,153.88,419.49Z"/><path class="cls-38" d="M174.15,386.42a2.59,2.59,0,1,0,3.37-1.42A2.58,2.58,0,0,0,174.15,386.42Z"/><path class="cls-39" d="M172.49,393.61a1.4,1.4,0,0,0,2.59,1.06,1.4,1.4,0,1,0-2.59-1.06Z"/></g><path class="cls-40" d="M113.12,287.33l4.25-1.24Z"/><path class="cls-40" d="M122.93,284.41a1,1,0,0,1-.69,1.26,1,1,0,1,1,.69-1.26Z"/><path class="cls-41" d="M156.29,344.49a6.22,6.22,0,0,0-2.51.55l0-.06a4.84,4.84,0,0,1-2.5.73,4.9,4.9,0,0,1-4.76-3.69,13.5,13.5,0,0,0-12.37-9.75,7.34,7.34,0,0,1-6.71-6.23s-.06,0-.09,0a7.28,7.28,0,1,0-11.06,6.37,7.28,7.28,0,0,1,4.87,6.84,7.16,7.16,0,0,1-.23,1.92,13.36,13.36,0,0,0,.14,9.37l-.11,0a5,5,0,0,1,.46,2,4.86,4.86,0,0,1-3.29,4.62,4.85,4.85,0,0,0,1.26,9.53,4.94,4.94,0,0,0,4.83-4.15,4.94,4.94,0,0,1,4.81-3.93,5,5,0,0,1,2,.3h0a14,14,0,0,0,2.6.13,13.3,13.3,0,0,0,9.88-4.44,4.87,4.87,0,0,1,8.29.33,6.23,6.23,0,1,0,4.53-10.5Z"/><path class="cls-41" d="M117.6,355.69a2.66,2.66,0,1,0-2.67-2.65A2.65,2.65,0,0,0,117.6,355.69Z"/><path class="cls-41" d="M147.6,353.44a3.63,3.63,0,1,0,3.64,3.62A3.63,3.63,0,0,0,147.6,353.44Z"/><path class="cls-41" d="M134.54,330.56a5.7,5.7,0,1,0-5.72-5.67A5.69,5.69,0,0,0,134.54,330.56Z"/><path class="cls-41" d="M140.69,328.46a2.08,2.08,0,1,0,2.07-2.09A2.08,2.08,0,0,0,140.69,328.46Z"/><path class="cls-41" d="M113.4,354.86a1.29,1.29,0,1,0-1.28,1.29A1.28,1.28,0,0,0,113.4,354.86Z"/><circle class="cls-41" cx="141.61" cy="361.24" r="1.9"/><path class="cls-41" d="M136.24,360.23a1,1,0,0,0-1,1,1,1,0,0,0,1,1,1,1,0,0,0,1-1A1,1,0,0,0,136.24,360.23Z"/><path class="cls-42" d="M127.48,341.19l2.06,7.07a2.4,2.4,0,1,0,0,4.61,2.49,2.49,0,0,0,1.6-3.12l-1.79-6.16c-.2-.69-.08-.95.15-1.07l4.17-2.1a.55.55,0,0,1,.77.34l1.34,4.59a2.34,2.34,0,0,0-2,.31,2.36,2.36,0,0,0-1.07,2,2.41,2.41,0,0,0,3.06,2.3,2.5,2.5,0,0,0,1.61-3.12c-.68-2.31-2.09-7.19-2.66-9.11a.69.69,0,0,0-1-.42l-5.94,3.06A.7.7,0,0,0,127.48,341.19Z"/><polygon class="cls-43" points="143.63 283.84 145.34 289.72 110.58 377.43 112.39 383.65 147.15 295.94 148.51 300.6 113.75 388.31 117.31 400.55 152.07 312.84 172.57 383.27 175.12 382.53 153.66 308.83 150.09 296.59 148.74 291.93 146.93 285.71 146.17 283.1 143.63 283.84"/><rect class="cls-40" x="101.31" y="289.5" width="60.54" height="103.55" transform="translate(-90.15 50.39) rotate(-16.23)"/><path class="cls-44" d="M239.39,69.92,209,79.87a8.2,8.2,0,0,0-5.23,10.32l6.84,20.88a8.19,8.19,0,0,0,10.31,5.22l9.17-3,2.7,5.8,9.38-9.75,9.17-3A8.21,8.21,0,0,0,256.54,96l-6.83-20.88A8.2,8.2,0,0,0,239.39,69.92Z"/><path class="cls-21" d="M239.39,69.92,209,79.87a8.2,8.2,0,0,0-5.23,10.32l6.84,20.88a8.19,8.19,0,0,0,10.31,5.22l9.17-3,2.7,5.8,9.38-9.75,9.17-3A8.21,8.21,0,0,0,256.54,96l-6.83-20.88A8.2,8.2,0,0,0,239.39,69.92Z"/><path class="cls-45" d="M234.08,71.66l-30.42,10a8.21,8.21,0,0,0-5.22,10.32l6.83,20.88A8.2,8.2,0,0,0,215.59,118l9.16-3,8,4.06,4.06-8,9.17-3a8.2,8.2,0,0,0,5.23-10.32l-6.84-20.88A8.19,8.19,0,0,0,234.08,71.66Z"/><path class="cls-46" d="M231.91,83.86a6.48,6.48,0,0,0-8.71,2.86L222.57,88l-1.22-.63a6.49,6.49,0,0,0-5.87,11.58l1.23.62,11.57,5.86,5.87-11.57.62-1.23A6.49,6.49,0,0,0,231.91,83.86Z"/><path class="cls-21" d="M235.19,71.39A23.55,23.55,0,0,1,203,105.71l2.32,7.1A8.2,8.2,0,0,0,215.59,118l9.16-3,8,4.06,4.06-8,9.17-3a8.2,8.2,0,0,0,5.23-10.32l-6.84-20.88A8.19,8.19,0,0,0,235.19,71.39Z"/><path class="cls-47" d="M531,384l-27-17.2a8.2,8.2,0,0,0-11.29,2.5l-11.8,18.53a8.2,8.2,0,0,0,2.5,11.29l8.14,5.18-2.78,5.77,13.49,1.06,8.14,5.19a8.2,8.2,0,0,0,11.29-2.51l11.81-18.52A8.2,8.2,0,0,0,531,384Z"/><path class="cls-21" d="M531,384l-27-17.2a8.2,8.2,0,0,0-11.29,2.5l-11.8,18.53a8.2,8.2,0,0,0,2.5,11.29l8.14,5.18-2.78,5.77,13.49,1.06,8.14,5.19a8.2,8.2,0,0,0,11.29-2.51l11.81-18.52A8.2,8.2,0,0,0,531,384Z"/><path class="cls-47" d="M526.25,381l-27-17.2A8.2,8.2,0,0,0,488,366.31l-11.81,18.52a8.21,8.21,0,0,0,2.5,11.29l8.14,5.19,1.94,8.77,8.78-1.94,8.13,5.18a8.21,8.21,0,0,0,11.3-2.5l11.8-18.53A8.2,8.2,0,0,0,526.25,381Z"/><path class="cls-21" d="M527.16,381.69a23.55,23.55,0,0,1-47-3.16l-4,6.3a8.21,8.21,0,0,0,2.5,11.29l8.14,5.19,1.94,8.77,8.78-1.94,8.13,5.18a8.21,8.21,0,0,0,11.3-2.5l11.8-18.53A8.2,8.2,0,0,0,527.16,381.69Z"/><path class="cls-48" d="M506.81,378.21,490,388.1a1.62,1.62,0,0,0,0,2.81l17,9.6a1.62,1.62,0,0,0,2.42-1.42l-.17-19.5A1.62,1.62,0,0,0,506.81,378.21Z"/><line class="cls-49" x1="505.51" y1="383.35" x2="502.04" y2="389.49"/><line class="cls-49" x1="500.39" y1="392.06" x2="500.68" y2="392.23"/><path class="cls-20" d="M455.35,463.37l-3.49-2.55L483,418.23l3.48,2.54a14.89,14.89,0,0,1,5.63,9,19.51,19.51,0,0,1-3.55,15.69l-9.06,12.4A19.55,19.55,0,0,1,465.62,466,14.88,14.88,0,0,1,455.35,463.37Z"/><path class="cls-21" d="M476.41,455.59l9-12.39A19.53,19.53,0,0,0,489,427.51a14.92,14.92,0,0,0-5.64-9l-.39-.29-31.13,42.59.4.29a14.93,14.93,0,0,0,10.28,2.64A19.53,19.53,0,0,0,476.41,455.59Z"/><path class="cls-50" d="M452,460.91h0a14.48,14.48,0,0,1-4.92-17.08,62.61,62.61,0,0,1,18-25,14.53,14.53,0,0,1,17.89-.6l.12.08a14.46,14.46,0,0,1,1.68,21.95,59.9,59.9,0,0,0-11.39,15.59A14.46,14.46,0,0,1,452,460.91Z"/><path class="cls-20" d="M483.38,418.52a46.86,46.86,0,0,0-10.28,10.71"/><path class="cls-51" d="M473.4,455.85a59.9,59.9,0,0,1,11.39-15.59,14.38,14.38,0,0,0,2.9-16.34S469.83,460,447.06,443.83A14.48,14.48,0,0,0,452,460.91h0A14.46,14.46,0,0,0,473.4,455.85Z"/><path class="cls-20" d="M311.56,116.23a6.54,6.54,0,1,1-8-4.7A6.53,6.53,0,0,1,311.56,116.23Z"/><path class="cls-52" d="M303.59,111.53a6.33,6.33,0,0,0-.77.26,5.17,5.17,0,1,1-4.08,6.91,7.05,7.05,0,0,0,.15.8,6.54,6.54,0,1,0,4.7-8Z"/><path class="cls-53" d="M305.76,115.6a2.86,2.86,0,1,1-3.49-2.06A2.86,2.86,0,0,1,305.76,115.6Z"/><line class="cls-47" x1="311.56" y1="116.23" x2="305.21" y2="91.65"/><polygon class="cls-20" points="316.55 88.72 306.74 97.56 305.21 91.65 316.55 88.72 316.55 88.72"/><polygon class="cls-52" points="306.74 97.56 316.55 88.72 316.55 88.72 305.97 94.61 306.74 97.56"/><path class="cls-20" d="M149,62.12a6.54,6.54,0,1,1-8.47-3.71A6.54,6.54,0,0,1,149,62.12Z"/><path class="cls-52" d="M140.49,58.41a6.27,6.27,0,0,0-.74.35,5.17,5.17,0,1,1-3.22,7.36,6.91,6.91,0,0,0,.25.77,6.54,6.54,0,1,0,3.71-8.48Z"/><path class="cls-53" d="M143.13,62.19a2.87,2.87,0,1,1-3.71-1.62A2.86,2.86,0,0,1,143.13,62.19Z"/><line class="cls-47" x1="148.96" y1="62.12" x2="139.71" y2="38.48"/><polygon class="cls-20" points="150.62 34.21 141.94 44.17 139.71 38.48 150.62 34.21 150.62 34.21"/><polygon class="cls-52" points="141.94 44.17 150.62 34.21 150.62 34.21 140.82 41.33 141.94 44.17"/><path class="cls-20" d="M220.33,357.56a6.54,6.54,0,1,1-9.17-1.23A6.55,6.55,0,0,1,220.33,357.56Z"/><path class="cls-52" d="M211.16,356.33a8,8,0,0,0-.61.53,5.17,5.17,0,1,1-1.07,8,7.26,7.26,0,0,0,.45.68,6.54,6.54,0,1,0,1.23-9.17Z"/><path class="cls-53" d="M214.74,359.23a2.86,2.86,0,1,1-4-.54A2.87,2.87,0,0,1,214.74,359.23Z"/><line class="cls-47" x1="220.33" y1="357.56" x2="204.92" y2="337.38"/><polygon class="cls-20" points="214.23 330.27 208.63 342.24 204.92 337.38 214.23 330.27 214.23 330.27"/><polygon class="cls-52" points="208.63 342.24 214.23 330.27 214.23 330.27 206.77 339.81 208.63 342.24"/><path class="cls-20" d="M544.52,327.5a6.54,6.54,0,1,1-5.06-7.75A6.54,6.54,0,0,1,544.52,327.5Z"/><path class="cls-52" d="M539.46,319.75a7.5,7.5,0,0,0-.81-.11,5.17,5.17,0,1,1-6.72,4.4c-.08.25-.16.51-.22.78a6.54,6.54,0,1,0,7.75-5.07Z"/><path class="cls-53" d="M539.6,324.36a2.86,2.86,0,1,1-2.21-3.39A2.87,2.87,0,0,1,539.6,324.36Z"/><line class="cls-47" x1="544.52" y1="327.5" x2="549.72" y2="302.65"/><polygon class="cls-20" points="561.19 305.05 548.47 308.63 549.72 302.65 561.19 305.05 561.19 305.05"/><polygon class="cls-52" points="548.47 308.63 561.19 305.05 561.19 305.05 549.1 305.64 548.47 308.63"/><path class="cls-20" d="M48.8,203.07a6.55,6.55,0,1,1-7.63-5.24A6.54,6.54,0,0,1,48.8,203.07Z"/><path class="cls-52" d="M41.17,197.83a5.41,5.41,0,0,0-.79.21,5.17,5.17,0,1,1-4.54,6.61,5.58,5.58,0,0,0,.09.81,6.55,6.55,0,1,0,5.24-7.63Z"/><path class="cls-53" d="M43.05,202a2.86,2.86,0,1,1-3.33-2.29A2.86,2.86,0,0,1,43.05,202Z"/><line class="cls-47" x1="48.8" y1="203.07" x2="44.17" y2="178.11"/><polygon class="cls-20" points="55.68 175.97 45.28 184.12 44.17 178.11 55.68 175.97 55.68 175.97"/><polygon class="cls-52" points="45.28 184.12 55.68 175.97 55.68 175.97 44.72 181.11 45.28 184.12"/><path class="cls-47" d="M181.33,41.17A6.54,6.54,0,1,1,176.94,33,6.53,6.53,0,0,1,181.33,41.17Z"/><path class="cls-52" d="M176.94,33a5.32,5.32,0,0,0-.79-.18,5.17,5.17,0,1,1-7.07,3.81c-.1.24-.2.5-.28.76A6.54,6.54,0,1,0,176.94,33Z"/><path class="cls-53" d="M176.7,37.62a2.86,2.86,0,1,1-1.92-3.56A2.87,2.87,0,0,1,176.7,37.62Z"/><path class="cls-53" d="M194.74,40a2.86,2.86,0,1,1-1.93-3.57A2.86,2.86,0,0,1,194.74,40Z"/><path class="cls-53" d="M194.74,40a2.86,2.86,0,1,1-1.93-3.57A2.86,2.86,0,0,1,194.74,40Z"/><line class="cls-47" x1="181.33" y1="41.17" x2="188.62" y2="16.85"/><path class="cls-47" d="M199,43a6.55,6.55,0,1,1-4.39-8.14A6.55,6.55,0,0,1,199,43Z"/><path class="cls-53" d="M194.74,40a2.86,2.86,0,1,1-1.93-3.57A2.86,2.86,0,0,1,194.74,40Z"/><line class="cls-47" x1="198.99" y1="43.04" x2="206.21" y2="18.93"/><polygon class="cls-47" points="204.46 24.78 186.87 22.7 188.62 16.85 206.21 18.93 204.46 24.78"/><polygon class="cls-52" points="186.87 22.7 204.46 24.78 205.34 21.86 187.75 19.77 186.87 22.7"/><path class="cls-52" d="M194.6,34.9a6,6,0,0,0-.79-.18,5.17,5.17,0,1,1-7.07,3.8,7,7,0,0,0-.29.76,6.55,6.55,0,1,0,8.15-4.38Z"/><path class="cls-47" d="M240.4,385.4a6.55,6.55,0,1,1-4.39-8.15A6.55,6.55,0,0,1,240.4,385.4Z"/><path class="cls-52" d="M236,377.25a8.1,8.1,0,0,0-.79-.18,5.17,5.17,0,1,1-7.07,3.81,7,7,0,0,0-.29.76,6.55,6.55,0,1,0,8.15-4.39Z"/><path class="cls-53" d="M235.76,381.86a2.87,2.87,0,1,1-1.92-3.57A2.87,2.87,0,0,1,235.76,381.86Z"/><path class="cls-53" d="M253.8,384.27a2.86,2.86,0,1,1-1.92-3.56A2.86,2.86,0,0,1,253.8,384.27Z"/><path class="cls-53" d="M253.8,384.27a2.86,2.86,0,1,1-1.92-3.56A2.86,2.86,0,0,1,253.8,384.27Z"/><line class="cls-47" x1="240.4" y1="385.4" x2="247.69" y2="361.08"/><path class="cls-47" d="M258.05,387.28a6.55,6.55,0,1,1-4.39-8.15A6.54,6.54,0,0,1,258.05,387.28Z"/><path class="cls-53" d="M253.8,384.27a2.86,2.86,0,1,1-1.92-3.56A2.86,2.86,0,0,1,253.8,384.27Z"/><line class="cls-47" x1="258.05" y1="387.28" x2="265.28" y2="363.17"/><polygon class="cls-47" points="263.52 369.02 245.93 366.93 247.69 361.08 265.28 363.17 263.52 369.02"/><polygon class="cls-52" points="245.93 366.93 263.52 369.02 264.4 366.09 246.81 364.01 245.93 366.93"/><path class="cls-52" d="M253.66,379.13a5.62,5.62,0,0,0-.79-.18,5.17,5.17,0,1,1-7.07,3.81,5.7,5.7,0,0,0-.29.76,6.55,6.55,0,1,0,8.15-4.39Z"/><polygon class="cls-20" points="370.14 350.02 301.25 340.54 313.78 314.18 365.19 321.26 370.14 350.02"/><polygon class="cls-21" points="313.78 314.18 307.51 327.36 367.67 335.64 365.19 321.26 313.78 314.18"/><path class="cls-20" d="M375.77,355l-81.29-11.18a2.11,2.11,0,0,1-1.79-2.36h0a2.1,2.1,0,0,1,2.35-1.78l81.3,11.19a2.09,2.09,0,0,1,1.78,2.35h0A2.08,2.08,0,0,1,375.77,355Z"/><path class="cls-18" d="M212.05,182.59H493a0,0,0,0,1,0,0V319.9a4.57,4.57,0,0,1-4.57,4.57H216.62a4.57,4.57,0,0,1-4.57-4.57V182.59a0,0,0,0,1,0,0Z" transform="translate(37.86 -45.7) rotate(7.84)"/><path class="cls-18" d="M485.06,320.91,206.73,282.6l18.55-134.82a5.8,5.8,0,0,1,6.52-4.94l266.88,36.73a5.8,5.8,0,0,1,4.94,6.52Z"/><path class="cls-54" d="M472.68,341.67,203.39,304.6a4.57,4.57,0,0,1-3.9-5.14l18.72-136,278.34,38.3-18.72,136A4.58,4.58,0,0,1,472.68,341.67Z"/><path class="cls-55" d="M480.24,320.24,201.9,281.93l18.56-134.81a5.78,5.78,0,0,1,6.52-4.94l266.88,36.73a5.79,5.79,0,0,1,4.94,6.52Z"/><rect class="cls-56" x="289.55" y="100.07" width="122.4" height="261.49" transform="translate(74.26 546.81) rotate(-82.16)"/><path class="cls-18" d="M212.05,182.59H493a0,0,0,0,1,0,0V319.9a4.57,4.57,0,0,1-4.57,4.57H216.62a4.57,4.57,0,0,1-4.57-4.57V182.59a0,0,0,0,1,0,0Z" transform="translate(37.86 -45.7) rotate(7.84)"/><path class="cls-57" d="M485.06,320.91,206.73,282.6l18.55-134.82a5.8,5.8,0,0,1,6.52-4.94l266.88,36.73a5.8,5.8,0,0,1,4.94,6.52Z"/><path class="cls-20" d="M207.23,181.93h281a0,0,0,0,1,0,0v137.3a4.57,4.57,0,0,1-4.57,4.57H211.8a4.57,4.57,0,0,1-4.57-4.57V181.93a0,0,0,0,1,0,0Z" transform="translate(37.73 -45.05) rotate(7.84)"/><path class="cls-21" d="M472.58,329,206.91,292.45a6.39,6.39,0,0,1-5.46-7.2l-1.71,12.4a6.39,6.39,0,0,0,5.46,7.2l265.67,36.57a6.4,6.4,0,0,0,7.21-5.46l1.7-12.41A6.39,6.39,0,0,1,472.58,329Z"/><path class="cls-58" d="M480.24,320.24,201.9,281.93l18.56-134.81a5.78,5.78,0,0,1,6.52-4.94l266.88,36.73a5.79,5.79,0,0,1,4.94,6.52Z"/><rect class="cls-59" x="220" y="169.62" width="261.49" height="122.4" transform="matrix(0.99, 0.14, -0.14, 0.99, 34.75, -45.67)"/><path class="cls-20" d="M345.07,312.87a5.57,5.57,0,1,1-4.76-6.27A5.57,5.57,0,0,1,345.07,312.87Z"/><path class="cls-60" d="M455.15,187.51c-70.72.94-61.1,63.41-143.28,75.65-51.7,7.7-80.22-9.84-94.26-23.91l-4.73,34.37,259,35.65L488.61,188l-3.44-.48C476.92,187.38,467,187.35,455.15,187.51Z"/><path class="cls-61" d="M313.41,207.69a3.64,3.64,0,0,1,4.06-3.14l64.6,8.23,2.55-20a3.65,3.65,0,0,0-3.14-4.06l-113.92-14.5a3.64,3.64,0,0,0-4.06,3.14l-7.79,61.19a3.65,3.65,0,0,0,3.14,4.06l49.32,6.28Z"/><path class="cls-62" d="M384.08,197l.54-4.2a3.65,3.65,0,0,0-3.14-4.06l-113.92-14.5a3.64,3.64,0,0,0-4.06,3.14l-.53,4.2Z"/><rect class="cls-63" x="309.03" y="211.53" width="122.09" height="68.94" rx="2.59" transform="translate(34.03 -44.77) rotate(7.26)"/><path class="cls-62" d="M434,227.31l.53-4.2a3.62,3.62,0,0,0-3.14-4.05L317.47,204.55a3.64,3.64,0,0,0-4.06,3.14l-.53,4.2Z"/><line class="cls-64" x1="370.11" y1="236.18" x2="370.11" y2="241.39"/><line class="cls-65" x1="370.11" y1="257.75" x2="370.11" y2="262.95"/><line class="cls-66" x1="383.49" y1="249.57" x2="378.29" y2="249.57"/><line class="cls-64" x1="361.93" y1="249.57" x2="356.73" y2="249.57"/><line class="cls-67" x1="379.57" y1="240.1" x2="375.89" y2="243.79"/><line class="cls-68" x1="364.33" y1="255.35" x2="360.65" y2="259.03"/><line class="cls-69" x1="379.57" y1="259.03" x2="375.89" y2="255.35"/><line class="cls-64" x1="364.33" y1="243.79" x2="360.65" y2="240.1"/><polygon class="cls-70" points="484.92 187.34 483.9 194.55 321.71 269.32 320.64 276.95 482.83 202.18 482.03 207.9 319.84 282.67 317.73 297.69 479.92 222.92 467.8 309.33 470.91 309.77 483.6 219.34 485.71 204.32 486.51 198.6 487.58 190.97 488.04 187.77 484.92 187.34"/><rect class="cls-40" x="220" y="169.62" width="261.49" height="122.4" transform="matrix(0.99, 0.14, -0.14, 0.99, 34.75, -45.67)"/><line class="cls-71" x1="570.03" y1="160.49" x2="500.87" y2="103.79"/><path class="cls-71" d="M597,258.71l-1.06-4-2.74.73c-4.72-1.69-13.16-1.46-22.32,1s-16.61,6.42-19.87,10.22l-2.74.72,1.07,4c1.26,4.76,13,5.8,26.12,2.31S598.27,263.47,597,258.71Z"/><path class="cls-52" d="M597,258.71c1.26,4.76-8.38,11.45-21.54,15s-24.86,2.45-26.12-2.31,8.38-11.46,21.54-15S595.75,253.94,597,258.71Z"/><path class="cls-47" d="M596,254.7c1.26,4.76-8.38,11.46-21.55,14.95s-24.85,2.46-26.12-2.31,8.39-11.45,21.55-14.94S594.68,249.94,596,254.7Z"/><ellipse class="cls-52" cx="571.62" cy="259.17" rx="17.45" ry="6.32" transform="translate(-47.34 155.24) rotate(-14.86)"/><path class="cls-47" d="M582.5,255.71c.55,2.07-3.63,5-9.34,6.48s-10.77,1.07-11.32-1,2.83-7.08,8.54-8.59S582,253.65,582.5,255.71Z"/><path class="cls-14" d="M576.59,253.55c.21,1-1.94,2.31-4.81,2.93s-5.36.32-5.58-.68,1.93-2.31,4.8-2.93S576.37,252.56,576.59,253.55Z"/><path class="cls-71" d="M580,158.41a2,2,0,0,0-2.16,1.9l-6.1,96.19.09,0a10.36,10.36,0,0,0,4.09-1.69l6-94.23A2,2,0,0,0,580,158.41Z"/><path class="cls-71" d="M505.27,99.44h0a2,2,0,0,0,.3,2.86l72.88,59.17a2,2,0,0,0,2.86-.3h0a2,2,0,0,0-.29-2.85L508.13,99.15A2,2,0,0,0,505.27,99.44Z"/><path class="cls-47" d="M501.58,87.43c7.59,15.13-18,43.33-24.41,46.54s-17.72-6.47-25.31-21.6-8.57-30-2.18-33.21S494,72.29,501.58,87.43Z"/><path class="cls-47" d="M507.27,100.58l-6.4,3.21c1.23-11.14-3.2-19.6-12.84-25.58l6.4-3.21a14.31,14.31,0,0,1,19.21,6.37h0A14.31,14.31,0,0,1,507.27,100.58Z"/><path class="cls-21" d="M508,75.39c.09.14,6.21,9.63,0,12.74s-12.29-3.38-12.29-3.38c-1.3,12.66-20.3,16.79-20.3,16.79s-2.75,22.08-3.83,32.52a7.22,7.22,0,0,0,5.61-.09c4.49-2.26,18.44-16.84,23.73-30.56l0,.38,6.4-3.21a14.31,14.31,0,0,0,6.37-19.21h0a14.2,14.2,0,0,0-4.43-5.19l-.84-.55Z"/><path class="cls-72" d="M477.17,134,331.36,307.21l-119.8-213L453.31,78.61s10.27,1.94,21.69,22.15S477.17,134,477.17,134Z"/><path class="cls-73" d="M475,100.76c7.59,15.13,8.56,30,2.17,33.21s-17.72-6.47-25.31-21.6-8.57-30-2.18-33.21S467.4,85.63,475,100.76Z"/><path class="cls-46" d="M460.43,108.07c4.89,9.75,14,15.06,20.42,11.85l.28-.16a60.42,60.42,0,0,0-6.13-19,60.1,60.1,0,0,0-11.57-16.27,2.52,2.52,0,0,0-.29.12C456.75,87.81,455.53,98.32,460.43,108.07Z"/><path class="cls-71" d="M582.69,160.86a7.19,7.19,0,1,1-7.55-6.81A7.2,7.2,0,0,1,582.69,160.86Z"/><path class="cls-52" d="M575.14,154.05A4.69,4.69,0,1,1,570.7,159a4.69,4.69,0,0,1,4.44-4.93,7.19,7.19,0,1,0,7.55,6.81A7.19,7.19,0,0,0,575.14,154.05Z"/><line class="cls-40" x1="573.92" y1="159.38" x2="577.98" y2="163.04"/><line class="cls-40" x1="577.78" y1="159.18" x2="574.12" y2="163.23"/><line class="cls-40" x1="567.29" y1="255.56" x2="573.1" y2="168.55"/><path class="cls-20" d="M401.57,38.87l-30.8-8.67a8.2,8.2,0,0,0-10.09,5.65L354.73,57a8.19,8.19,0,0,0,5.65,10.08l9.29,2.62-1,6.32,13.22-2.87,9.29,2.61a8.19,8.19,0,0,0,10.08-5.65l6-21.15A8.21,8.21,0,0,0,401.57,38.87Z"/><path class="cls-21" d="M401.57,38.87l-30.8-8.67a8.2,8.2,0,0,0-10.09,5.65L354.73,57a8.19,8.19,0,0,0,5.65,10.08l9.29,2.62-1,6.32,13.22-2.87,9.29,2.61a8.19,8.19,0,0,0,10.08-5.65l6-21.15A8.21,8.21,0,0,0,401.57,38.87Z"/><path class="cls-20" d="M396.19,37.36l-30.8-8.68a8.21,8.21,0,0,0-10.09,5.66l-6,21.14A8.21,8.21,0,0,0,355,65.57l9.28,2.61,4.4,7.84,7.84-4.39,9.28,2.61a8.2,8.2,0,0,0,10.09-5.65l6-21.14A8.21,8.21,0,0,0,396.19,37.36Z"/><path class="cls-21" d="M397.26,37.75a23.55,23.55,0,0,1-45.89,10.54l-2,7.19A8.21,8.21,0,0,0,355,65.57l9.28,2.61,4.4,7.84,7.84-4.39,9.28,2.61a8.2,8.2,0,0,0,10.09-5.65l6-21.14A8.21,8.21,0,0,0,397.26,37.75Z"/><circle class="cls-47" cx="376.4" cy="52.19" r="11.98" transform="translate(143.5 352.44) rotate(-60.09)"/><path class="cls-52" d="M375,57.23a12,12,0,0,1-8.73-11.4,12,12,0,1,0,22.13,6.23A12,12,0,0,1,375,57.23Z"/><path class="cls-46" d="M367.74,53.23a8.72,8.72,0,0,0,15.5,4.37Z"/><path class="cls-14" d="M371.76,49.15a1.2,1.2,0,1,1-.83-1.48A1.2,1.2,0,0,1,371.76,49.15Z"/><path class="cls-14" d="M384.3,52.68a1.2,1.2,0,1,1-.83-1.48A1.2,1.2,0,0,1,384.3,52.68Z"/><path class="cls-53" d="M382.32,46.17c-.31,1.1-2,1.57-3.87,1s-3.07-1.82-2.76-2.92,2-1.56,3.87-1S382.63,45.08,382.32,46.17Z"/><rect class="cls-18" x="268.34" y="397.84" width="149.59" height="55.78" rx="2.64" transform="translate(-81.59 81.35) rotate(-12.09)"/><rect class="cls-50" x="266.38" y="398.6" width="146.4" height="55.78" rx="2.63" transform="translate(-81.82 80.62) rotate(-12.09)"/><path class="cls-21" d="M412.22,433.69l-136,29.13A3.68,3.68,0,0,1,271.9,460l1.18,5.5a3.69,3.69,0,0,0,4.37,2.83l136-29.13a3.69,3.69,0,0,0,2.83-4.37l-1.18-5.51A3.68,3.68,0,0,1,412.22,433.69Z"/><rect class="cls-18" x="307.65" y="440.93" width="69.54" height="7.4" rx="1.22" transform="translate(-85.56 81.62) rotate(-12.09)"/><rect class="cls-18" x="270.4" y="418.71" width="7.4" height="7.4" rx="1.31" transform="translate(-82.42 66.81) rotate(-12.09)"/><rect class="cls-18" x="288.64" y="427.15" width="7.4" height="7.4" rx="1.31" transform="translate(-83.79 70.82) rotate(-12.1)"/><rect class="cls-18" x="298.77" y="424.98" width="7.4" height="7.4" rx="1.31" transform="translate(-83.11 72.89) rotate(-12.09)"/><rect class="cls-18" x="308.9" y="422.81" width="7.4" height="7.4" rx="1.31" transform="translate(-82.44 74.98) rotate(-12.1)"/><rect class="cls-18" x="319.03" y="420.64" width="7.4" height="7.4" rx="1.31" transform="translate(-81.76 77.05) rotate(-12.1)"/><rect class="cls-18" x="329.15" y="418.47" width="7.4" height="7.4" rx="1.31" transform="translate(-81.06 79.1) rotate(-12.09)"/><rect class="cls-18" x="339.28" y="416.3" width="7.4" height="7.4" rx="1.31" transform="translate(-80.39 81.19) rotate(-12.09)"/><rect class="cls-18" x="349.41" y="414.13" width="7.4" height="7.4" rx="1.31" transform="translate(-79.71 83.26) rotate(-12.1)"/><rect class="cls-18" x="359.54" y="411.96" width="7.4" height="7.4" rx="1.31" transform="translate(-79.03 85.34) rotate(-12.1)"/><rect class="cls-18" x="369.67" y="409.79" width="7.4" height="7.4" rx="1.31" transform="translate(-78.35 87.41) rotate(-12.09)"/><rect class="cls-18" x="379.79" y="407.62" width="7.4" height="7.4" rx="1.31" transform="translate(-77.67 89.48) rotate(-12.09)"/><rect class="cls-18" x="272.88" y="429.97" width="12.7" height="7.4" rx="1.72" transform="translate(-84.67 68.13) rotate(-12.09)"/><rect class="cls-18" x="280.53" y="416.54" width="7.4" height="7.4" rx="1.31" transform="translate(-81.74 68.88) rotate(-12.09)"/><rect class="cls-18" x="290.66" y="414.37" width="7.4" height="7.4" rx="1.31" transform="translate(-81.07 70.96) rotate(-12.1)"/><rect class="cls-18" x="300.79" y="412.2" width="7.4" height="7.4" rx="1.31" transform="matrix(0.98, -0.21, 0.21, 0.98, -80.38, 73.03)"/><rect class="cls-18" x="310.92" y="410.03" width="7.4" height="7.4" rx="1.31" transform="translate(-79.69 75.09) rotate(-12.09)"/><rect class="cls-18" x="321.04" y="407.86" width="7.4" height="7.4" rx="1.31" transform="translate(-79.04 77.2) rotate(-12.1)"/><rect class="cls-18" x="331.17" y="405.69" width="7.4" height="7.4" rx="1.31" transform="translate(-78.35 79.25) rotate(-12.09)"/><rect class="cls-18" x="341.3" y="403.52" width="7.4" height="7.4" rx="1.31" transform="translate(-77.67 81.33) rotate(-12.09)"/><rect class="cls-18" x="351.43" y="401.35" width="7.4" height="7.4" rx="1.31" transform="translate(-76.99 83.4) rotate(-12.1)"/><rect class="cls-18" x="361.55" y="399.18" width="7.4" height="7.4" rx="1.31" transform="translate(-76.3 85.46) rotate(-12.09)"/><rect class="cls-18" x="371.68" y="397.01" width="7.4" height="7.4" rx="1.31" transform="translate(-75.63 87.55) rotate(-12.09)"/><rect class="cls-18" x="381.81" y="394.84" width="7.4" height="7.4" rx="1.31" transform="translate(-74.95 89.62) rotate(-12.09)"/><rect class="cls-18" x="391.94" y="392.67" width="7.4" height="7.4" rx="1.31" transform="translate(-74.28 91.71) rotate(-12.1)"/><rect class="cls-18" x="275.45" y="442.24" width="7.4" height="7.4" rx="1.31" transform="translate(-87.24 68.39) rotate(-12.09)"/><rect class="cls-18" x="285.57" y="440.07" width="7.4" height="7.4" rx="1.31" transform="translate(-86.56 70.46) rotate(-12.09)"/><rect class="cls-18" x="295.7" y="437.9" width="7.4" height="7.4" rx="1.31" transform="translate(-85.88 72.54) rotate(-12.1)"/><rect class="cls-18" x="277.96" y="453.95" width="7.4" height="7.4" rx="1.31" transform="translate(-89.64 69.17) rotate(-12.09)"/><rect class="cls-18" x="288.08" y="451.78" width="7.4" height="7.4" rx="1.31" transform="translate(-88.95 71.24) rotate(-12.09)"/><rect class="cls-18" x="298.21" y="449.61" width="7.4" height="7.4" rx="1.31" transform="translate(-88.29 73.34) rotate(-12.1)"/><rect class="cls-18" x="305.83" y="435.73" width="7.4" height="7.4" rx="1.31" transform="translate(-85.22 74.63) rotate(-12.1)"/><rect class="cls-18" x="315.96" y="433.56" width="7.4" height="7.4" rx="1.31" transform="translate(-84.52 76.68) rotate(-12.09)"/><rect class="cls-18" x="326.08" y="431.39" width="7.4" height="7.4" rx="1.31" transform="matrix(0.98, -0.21, 0.21, 0.98, -83.85, 78.76)"/><rect class="cls-18" x="336.21" y="429.22" width="7.4" height="7.4" rx="1.31" transform="translate(-83.16 80.83) rotate(-12.09)"/><rect class="cls-18" x="346.34" y="427.04" width="7.4" height="7.4" rx="1.31" transform="translate(-82.47 82.89) rotate(-12.09)"/><rect class="cls-18" x="356.47" y="424.87" width="7.4" height="7.4" rx="1.31" transform="translate(-81.82 84.99) rotate(-12.1)"/><rect class="cls-18" x="366.6" y="422.7" width="7.4" height="7.4" rx="1.31" transform="translate(-81.14 87.07) rotate(-12.1)"/><rect class="cls-18" x="376.72" y="420.53" width="7.4" height="7.4" rx="1.31" transform="translate(-80.44 89.11) rotate(-12.09)"/><rect class="cls-18" x="386.85" y="418.36" width="7.4" height="7.4" rx="1.31" transform="translate(-79.77 91.2) rotate(-12.09)"/><path class="cls-18" d="M398.89,404.24,393,405.5a2.24,2.24,0,0,0-1.64,2.7l.68,3.17a2.24,2.24,0,0,0,2.61,1.79l.77-.16,1.81,8.48a2.8,2.8,0,0,0,3.25,2.24l1.94-.42a2.79,2.79,0,0,0,2.05-3.37l-2.3-10.73-.07-.34-.61-2.83A2.24,2.24,0,0,0,398.89,404.24Z"/><rect class="cls-18" x="379.23" y="432.25" width="7.4" height="7.4" rx="1.31" transform="translate(-82.85 89.92) rotate(-12.1)"/><rect class="cls-18" x="389.36" y="430.08" width="7.4" height="7.4" rx="1.31" transform="translate(-82.15 91.97) rotate(-12.09)"/><rect class="cls-18" x="399.49" y="427.91" width="7.4" height="7.4" rx="1.31" transform="translate(-81.49 94.06) rotate(-12.1)"/><rect class="cls-18" x="307.44" y="439.94" width="69.54" height="7.4" rx="1.22" transform="translate(-85.36 81.55) rotate(-12.09)"/><rect class="cls-18" x="270.19" y="417.72" width="7.4" height="7.4" rx="1.31" transform="translate(-82.22 66.74) rotate(-12.09)"/><rect class="cls-18" x="288.43" y="426.17" width="7.4" height="7.4" rx="1.31" transform="translate(-83.6 70.77) rotate(-12.1)"/><rect class="cls-18" x="298.56" y="424" width="7.4" height="7.4" rx="1.31" transform="translate(-82.91 72.83) rotate(-12.1)"/><rect class="cls-18" x="308.69" y="421.83" width="7.4" height="7.4" rx="1.31" transform="translate(-82.22 74.89) rotate(-12.09)"/><rect class="cls-18" x="318.82" y="419.66" width="7.4" height="7.4" rx="1.31" transform="translate(-81.55 76.97) rotate(-12.09)"/><rect class="cls-18" x="328.94" y="417.49" width="7.4" height="7.4" rx="1.31" transform="translate(-80.85 79.03) rotate(-12.09)"/><rect class="cls-18" x="339.07" y="415.32" width="7.4" height="7.4" rx="1.31" transform="translate(-80.19 81.12) rotate(-12.1)"/><rect class="cls-18" x="349.2" y="413.15" width="7.4" height="7.4" rx="1.31" transform="translate(-79.52 83.21) rotate(-12.1)"/><rect class="cls-18" x="359.33" y="410.98" width="7.4" height="7.4" rx="1.31" transform="translate(-78.83 85.27) rotate(-12.09)"/><rect class="cls-18" x="369.45" y="408.81" width="7.4" height="7.4" rx="1.31" transform="translate(-78.15 87.35) rotate(-12.1)"/><rect class="cls-18" x="379.58" y="406.64" width="7.4" height="7.4" rx="1.31" transform="translate(-77.46 89.41) rotate(-12.09)"/><rect class="cls-18" x="272.67" y="428.98" width="12.7" height="7.4" rx="1.72" transform="translate(-84.47 68.07) rotate(-12.09)"/><rect class="cls-18" x="280.32" y="415.55" width="7.4" height="7.4" rx="1.31" transform="translate(-81.54 68.82) rotate(-12.09)"/><rect class="cls-18" x="290.45" y="413.38" width="7.4" height="7.4" rx="1.31" transform="translate(-80.87 70.9) rotate(-12.1)"/><rect class="cls-18" x="300.58" y="411.21" width="7.4" height="7.4" rx="1.31" transform="translate(-80.2 72.98) rotate(-12.1)"/><rect class="cls-18" x="310.7" y="409.04" width="7.4" height="7.4" rx="1.31" transform="translate(-79.49 75.03) rotate(-12.09)"/><rect class="cls-18" x="320.83" y="406.87" width="7.4" height="7.4" rx="1.31" transform="translate(-78.82 77.11) rotate(-12.09)"/><rect class="cls-18" x="330.96" y="404.7" width="7.4" height="7.4" rx="1.31" transform="translate(-78.15 79.19) rotate(-12.1)"/><rect class="cls-18" x="341.09" y="402.53" width="7.4" height="7.4" rx="1.31" transform="translate(-77.46 81.26) rotate(-12.09)"/><rect class="cls-18" x="351.21" y="400.36" width="7.4" height="7.4" rx="1.31" transform="translate(-76.78 83.33) rotate(-12.09)"/><rect class="cls-18" x="361.34" y="398.19" width="7.4" height="7.4" rx="1.31" transform="translate(-76.11 85.41) rotate(-12.1)"/><rect class="cls-18" x="371.47" y="396.02" width="7.4" height="7.4" rx="1.31" transform="translate(-75.43 87.49) rotate(-12.1)"/><rect class="cls-18" x="381.6" y="393.85" width="7.4" height="7.4" rx="1.31" transform="translate(-74.75 89.56) rotate(-12.1)"/><rect class="cls-18" x="391.73" y="391.68" width="7.4" height="7.4" rx="1.31" transform="translate(-74.07 91.63) rotate(-12.09)"/><rect class="cls-18" x="275.23" y="441.25" width="7.4" height="7.4" rx="1.31" transform="matrix(0.98, -0.21, 0.21, 0.98, -87.04, 68.32)"/><rect class="cls-18" x="285.36" y="439.08" width="7.4" height="7.4" rx="1.31" transform="translate(-86.36 70.4) rotate(-12.09)"/><rect class="cls-18" x="295.49" y="436.91" width="7.4" height="7.4" rx="1.31" transform="translate(-85.67 72.46) rotate(-12.09)"/><rect class="cls-18" x="277.74" y="452.97" width="7.4" height="7.4" rx="1.31" transform="translate(-89.45 69.12) rotate(-12.1)"/><rect class="cls-18" x="287.87" y="450.8" width="7.4" height="7.4" rx="1.31" transform="translate(-88.75 71.17) rotate(-12.09)"/><rect class="cls-18" x="298" y="448.63" width="7.4" height="7.4" rx="1.31" transform="translate(-88.08 73.26) rotate(-12.09)"/><rect class="cls-18" x="305.62" y="434.74" width="7.4" height="7.4" rx="1.31" transform="translate(-85 74.54) rotate(-12.09)"/><rect class="cls-18" x="315.75" y="432.57" width="7.4" height="7.4" rx="1.31" transform="translate(-84.32 76.62) rotate(-12.1)"/><rect class="cls-18" x="325.87" y="430.4" width="7.4" height="7.4" rx="1.31" transform="translate(-83.63 78.68) rotate(-12.09)"/><rect class="cls-18" x="336" y="428.23" width="7.4" height="7.4" rx="1.31" transform="translate(-82.98 80.78) rotate(-12.1)"/><rect class="cls-18" x="346.13" y="426.06" width="7.4" height="7.4" rx="1.31" transform="translate(-82.27 82.82) rotate(-12.09)"/><rect class="cls-18" x="356.26" y="423.89" width="7.4" height="7.4" rx="1.31" transform="translate(-81.6 84.91) rotate(-12.09)"/><rect class="cls-18" x="366.38" y="421.72" width="7.4" height="7.4" rx="1.31" transform="translate(-80.92 86.99) rotate(-12.09)"/><rect class="cls-18" x="376.51" y="419.55" width="7.4" height="7.4" rx="1.31" transform="translate(-80.23 89.05) rotate(-12.09)"/><rect class="cls-18" x="386.64" y="417.38" width="7.4" height="7.4" rx="1.31" transform="translate(-79.57 91.14) rotate(-12.1)"/><path class="cls-18" d="M398.67,403.25l-5.88,1.26a2.26,2.26,0,0,0-1.64,2.71l.68,3.16a2.23,2.23,0,0,0,2.61,1.79l.77-.16,1.81,8.48a2.8,2.8,0,0,0,3.25,2.24l1.94-.41a2.81,2.81,0,0,0,2.05-3.38L402,408.21l-.07-.34-.61-2.82A2.25,2.25,0,0,0,398.67,403.25Z"/><rect class="cls-18" x="379.02" y="431.26" width="7.4" height="7.4" rx="1.31" transform="translate(-82.64 89.85) rotate(-12.09)"/><rect class="cls-18" x="389.15" y="429.09" width="7.4" height="7.4" rx="1.31" transform="translate(-81.95 91.91) rotate(-12.09)"/><rect class="cls-18" x="399.28" y="426.92" width="7.4" height="7.4" rx="1.31" transform="translate(-81.29 94.01) rotate(-12.1)"/><polygon class="cls-3" points="429.96 24.78 419.73 20.82 416.5 12.18 413.27 21.26 403.05 24.78 412.33 28.19 416.5 37.38 419.73 28.93 429.96 24.78"/><path class="cls-3" d="M159.26,281.23a39.87,39.87,0,0,0,7.93,1.66,69.33,69.33,0,0,0,15.86,0,40,40,0,0,0,7.92-1.67,40.68,40.68,0,0,0-7.92-1.67,69.33,69.33,0,0,0-15.86,0A40.59,40.59,0,0,0,159.26,281.23Z"/><path class="cls-3" d="M175.12,266.38a33.88,33.88,0,0,0-1.78,7.43,57.08,57.08,0,0,0,0,14.85,33.4,33.4,0,0,0,1.79,7.42,33.93,33.93,0,0,0,1.78-7.42,57.08,57.08,0,0,0,0-14.85A34.43,34.43,0,0,0,175.12,266.38Z"/><path class="cls-3" d="M163.9,291.73a38.67,38.67,0,0,0,6.86-4.07,61.9,61.9,0,0,0,6-4.93,60.16,60.16,0,0,0,5.26-5.57,35.22,35.22,0,0,0,4.35-6.43,38.17,38.17,0,0,0-6.87,4.07,62.63,62.63,0,0,0-11.21,10.51A36,36,0,0,0,163.9,291.73Z"/><path class="cls-3" d="M163.9,270.73a36.46,36.46,0,0,0,4.35,6.43,63.06,63.06,0,0,0,11.21,10.5,38.17,38.17,0,0,0,6.87,4.07A35.57,35.57,0,0,0,182,285.3a60.16,60.16,0,0,0-5.26-5.57,61.9,61.9,0,0,0-6-4.93A39.29,39.29,0,0,0,163.9,270.73Z"/><path class="cls-3" d="M192.13,393.84a18.93,18.93,0,0,0,3.57.75,31.87,31.87,0,0,0,7.13,0,18.08,18.08,0,0,0,3.56-.75,18.08,18.08,0,0,0-3.56-.75,30.53,30.53,0,0,0-3.57-.21,32.84,32.84,0,0,0-3.56.21A18.17,18.17,0,0,0,192.13,393.84Z"/><path class="cls-3" d="M199.26,387.16a15,15,0,0,0-.79,3.34,25,25,0,0,0-.22,3.34,23.5,23.5,0,0,0,.21,3.34,15.51,15.51,0,0,0,.8,3.33,14.41,14.41,0,0,0,.8-3.33,25.46,25.46,0,0,0,0-6.68A15,15,0,0,0,199.26,387.16Z"/><path class="cls-3" d="M194.22,398.56a17.73,17.73,0,0,0,3.09-1.83,28.57,28.57,0,0,0,2.67-2.22,26.64,26.64,0,0,0,2.37-2.5,15.74,15.74,0,0,0,2-2.89,16.48,16.48,0,0,0-3.08,1.83,28.87,28.87,0,0,0-2.68,2.21,26.65,26.65,0,0,0-2.36,2.51A15.78,15.78,0,0,0,194.22,398.56Z"/><path class="cls-3" d="M194.22,389.12a16.13,16.13,0,0,0,2,2.89,27.82,27.82,0,0,0,2.36,2.5,27.46,27.46,0,0,0,2.68,2.22,17.63,17.63,0,0,0,3.08,1.83,15.74,15.74,0,0,0-2-2.89,26.75,26.75,0,0,0-2.37-2.51,30.11,30.11,0,0,0-2.67-2.21A17.12,17.12,0,0,0,194.22,389.12Z"/></g></g></g></svg>